<svg id="Layer_1" data-name="Layer 1" xmlns="http://www.w3.org/2000/svg" viewBox="0 0 100 30"><title>Artboard 1</title><path d="M24.26,23.93h-14A5.64,5.64,0,0,1,8.87,12.81l1.38-.34.45-1.34a7.18,7.18,0,0,1,13.92,1.4L24.8,14l1.36.58a4.87,4.87,0,0,1-1.9,9.36Zm2.91-11.72a9.75,9.75,0,0,0-18-3.84V4.79a1.29,1.29,0,1,0-2.57,0v6.12A8.21,8.21,0,0,0,10.21,26.5H24.26a7.44,7.44,0,0,0,2.91-14.29ZM14.91,13.57a.65.65,0,0,1-.65.65H13a.66.66,0,0,1-.65-.65v-1.3a.66.66,0,0,1,.65-.65h1.31a.65.65,0,0,1,.65.65Zm3.7,0a.66.66,0,0,1-.65.65H16.65a.65.65,0,0,1-.65-.65v-1.3a.65.65,0,0,1,.65-.65H18a.66.66,0,0,1,.65.65Zm3.69,0a.65.65,0,0,1-.65.65h-1.3a.65.65,0,0,1-.65-.65v-1.3a.65.65,0,0,1,.65-.65h1.3a.65.65,0,0,1,.65.65Zm-7.39,3.7a.65.65,0,0,1-.65.65H13a.66.66,0,0,1-.65-.65V16a.66.66,0,0,1,.65-.65h1.31a.65.65,0,0,1,.65.65Zm3.7,0a.66.66,0,0,1-.65.65H16.65a.65.65,0,0,1-.65-.65V16a.65.65,0,0,1,.65-.65H18a.66.66,0,0,1,.65.65Zm3.69,0a.65.65,0,0,1-.65.65h-1.3a.65.65,0,0,1-.65-.65V16a.65.65,0,0,1,.65-.65h1.3a.65.65,0,0,1,.65.65ZM14.91,21a.65.65,0,0,1-.65.65H13A.66.66,0,0,1,12.3,21V19.66A.65.65,0,0,1,13,19h1.31a.65.65,0,0,1,.65.64Zm3.7,0a.66.66,0,0,1-.65.65H16.65A.65.65,0,0,1,16,21V19.66a.65.65,0,0,1,.65-.64H18a.65.65,0,0,1,.65.64Zm3.69,0a.65.65,0,0,1-.65.65h-1.3A.65.65,0,0,1,19.7,21V19.66a.65.65,0,0,1,.65-.64h1.3a.65.65,0,0,1,.65.64Z" style="fill:#2bb031"/><path d="M59.26,23c-2,0-4.31-.84-4.31-4.82v-16a.87.87,0,0,1,1-1h2.27a.87.87,0,0,1,1,1V17.94c0,1.39.34,1.82.42,1.86h.18a.86.86,0,0,1,1,.95V22a.87.87,0,0,1-1,1Z" style="fill:#626375"/><path d="M63.54,23a.87.87,0,0,1-.95-1V8.36a.87.87,0,0,1,.95-.95h2.28a.86.86,0,0,1,1,.95V22a.87.87,0,0,1-1,1Zm0-17.62a.87.87,0,0,1-.95-1V2.11a.87.87,0,0,1,.95-1h2.28a.87.87,0,0,1,1,1V4.38a.87.87,0,0,1-1,1Z" style="fill:#626375"/><path d="M75,23a1.19,1.19,0,0,1-1.14-.73L68.76,8.44a.71.71,0,0,1,0-.72.78.78,0,0,1,.72-.31h2.61a1.07,1.07,0,0,1,1.11.81l2.73,9.53,2.72-9.52a1,1,0,0,1,1.12-.82h2.61a.78.78,0,0,1,.71.32.73.73,0,0,1,0,.75L78,22.2a1.21,1.21,0,0,1-1.16.76Z" style="fill:#626375"/><path d="M91.06,22.94c-4.68,0-7-2.53-7-7.74s2.27-7.81,7-7.81S98,10,98,15.18s-2.27,7.76-6.94,7.76Zm0-12.36c-2.07,0-3,1.37-3,4.6s.88,4.57,3,4.57S94,18.38,94,15.18s-.88-4.6-2.94-4.6Z" style="fill:#626375"/><path d="M46.85,7.4a6.82,6.82,0,0,0-4,1.12V8.34a.84.84,0,0,0-.92-.93h-2.2a.83.83,0,0,0-.92.93v.35h0V27.92a.84.84,0,0,0,.92.93h2.2a.84.84,0,0,0,.93-.93V21.73a5.33,5.33,0,0,0,3.91,1.4c2.34,0,6.28-1,6.28-7.9S49.17,7.4,46.85,7.4ZM46.3,20.07c-1.48,0-3.44-.5-3.44-4.84s1.82-4.77,3.41-4.77c1.44,0,2.73.37,2.73,4.77S47.67,20.07,46.3,20.07Z" style="fill:#626375"/></svg>